<svg width="512" height="512" viewBox="0 0 512 512" fill="none" xmlns="http://www.w3.org/2000/svg">
<path fill-rule="evenodd" clip-rule="evenodd" d="M224.911 354.825L231.449 348.134C207.911 324.934 189.864 308.564 177.715 292.155C164.269 273.95 157.232 255.59 157.232 229.717C157.232 211.26 161.654 195.24 167.504 182.109C177.675 159.339 192.239 145.388 195.244 142.656L255.337 81.1301H298.969L275.66 104.998C298.02 126.949 315.839 143.358 328.137 159.787C342.291 178.675 349.898 197.718 349.898 223.473C349.898 241.931 345.476 257.97 339.626 271.082C329.424 293.872 314.88 307.823 311.886 310.535L228.605 395.67L200.734 379.548L220.18 359.658C228.435 361.167 236.92 362.141 245.584 362.581L253.969 362.779C253.969 362.779 241.841 360.947 224.911 354.825ZM253.869 127.3L217.175 164.861C216.885 165.172 216.556 165.465 216.236 165.758C216.236 165.758 204.228 176.372 195.983 194.85C191.7 204.469 188.416 216.196 188.416 229.717C188.416 247.903 193.337 260.8 202.81 273.58C214.19 288.994 231.23 304.193 253.26 325.832L289.955 288.33C290.244 288.018 290.554 287.726 290.883 287.453C290.883 287.453 302.872 276.819 311.137 258.322C315.429 248.722 318.704 236.995 318.704 223.473C318.704 205.269 313.164 191.864 303.191 178.519C291.622 163.065 274.822 147.787 253.869 127.3Z" fill="#007DD6"/>
<path fill-rule="evenodd" clip-rule="evenodd" d="M107.75 51H159.829L107.75 95.5452V51Z" fill="#007DD6"/>
<path d="M269.858 247.428C269.858 235.123 279.84 225.119 292.135 225.119C293.247 225.119 294.321 225.282 295.396 225.444C293.672 204.411 276.255 187.792 254.79 187.792C232.201 187.792 213.86 206.149 213.86 228.771C213.86 251.379 232.201 269.736 254.79 269.736C262.811 269.736 270.232 267.335 276.554 263.346C272.431 259.295 269.858 253.668 269.858 247.428Z" fill="#73C3FF"/>
<path fill-rule="evenodd" clip-rule="evenodd" d="M254.329 51.031H421.999V216.594C421.999 372.629 253.68 461 253.68 461L243.897 450.471L151.542 351.083L253.68 410.18C279.783 397.976 391.603 338.616 391.603 216.594V81.1301H253.68V81.1281C180.47 81.2819 121.076 140.824 121.076 214.138C121.076 216.821 121.156 219.48 121.346 222.115C124.999 306.065 186.989 341.168 224.911 354.825L225.101 354.897C241.931 360.961 253.969 362.779 253.969 362.779L245.584 362.581C236.92 362.141 228.435 361.167 220.18 359.658L219.96 359.619C146.301 346.331 91 292.474 91 214.138C91 124.109 164.02 51.022 253.969 51.022L254.329 51.031Z" fill="black"/>
</svg>
