<svg width="32" height="32" viewBox="0 0 32 32" fill="none" xmlns="http://www.w3.org/2000/svg">
<path fill-rule="evenodd" clip-rule="evenodd" d="M13.7983 23.2311L14.2767 22.7415C12.5544 21.044 11.2339 19.8462 10.345 18.6455C9.36113 17.3135 8.84619 15.97 8.84619 14.0769C8.84619 12.7263 9.16976 11.5542 9.59778 10.5933C10.3421 8.92723 11.4077 7.90642 11.6276 7.70655L16.0246 3.20465H19.2172L17.5117 4.95108C19.1478 6.55723 20.4516 7.75794 21.3514 8.96005C22.3871 10.3421 22.9437 11.7355 22.9437 13.62C22.9437 14.9706 22.6201 16.1442 22.1921 17.1036C21.4456 18.7711 20.3814 19.7919 20.1623 19.9903L14.0686 26.2197L12.0293 25.0401L13.4521 23.5847C14.0562 23.6951 14.677 23.7664 15.311 23.7986L15.9245 23.8131C15.9245 23.8131 15.0371 23.679 13.7983 23.2311ZM15.9172 6.58296L13.2323 9.33127C13.2111 9.35408 13.187 9.3755 13.1636 9.39691C13.1636 9.39691 12.2849 10.1736 11.6816 11.5256C11.3683 12.2294 11.128 13.0875 11.128 14.0769C11.128 15.4075 11.4881 16.3512 12.1812 17.2863C13.0139 18.4142 14.2607 19.5264 15.8727 21.1097L18.5576 18.3656C18.5788 18.3428 18.6014 18.3214 18.6255 18.3014C18.6255 18.3014 19.5028 17.5233 20.1075 16.1699C20.4216 15.4675 20.6612 14.6094 20.6612 13.62C20.6612 12.288 20.2558 11.3072 19.5261 10.3307C18.6796 9.1999 17.4503 8.08201 15.9172 6.58296Z" fill="#007DD6"/>
<path fill-rule="evenodd" clip-rule="evenodd" d="M5.22565 1H9.0363L5.22565 4.2594V1Z" fill="#007DD6"/>
<path d="M17.0872 15.3727C17.0872 14.4724 17.8176 13.7404 18.7172 13.7404C18.7985 13.7404 18.8772 13.7523 18.9558 13.7642C18.8296 12.2252 17.5552 11.0092 15.9846 11.0092C14.3318 11.0092 12.9897 12.3524 12.9897 14.0076C12.9897 15.6619 14.3318 17.0051 15.9846 17.0051C16.5716 17.0051 17.1146 16.8294 17.5771 16.5375C17.2755 16.241 17.0872 15.8293 17.0872 15.3727Z" fill="#73C3FF"/>
<path fill-rule="evenodd" clip-rule="evenodd" d="M15.9509 1.00237H28.2194V13.1167C28.2194 24.5339 15.9034 31.0001 15.9034 31.0001L15.1876 30.2297L8.4299 22.9574L15.9034 27.2816C17.8134 26.3885 25.9954 22.0451 25.9954 13.1167V3.20474H15.9034V3.20459C10.5466 3.21585 6.20071 7.57257 6.20071 12.937C6.20071 13.1334 6.20656 13.3279 6.22044 13.5207C6.48776 19.6634 11.0236 22.2319 13.7984 23.2312L13.8122 23.2364C15.0437 23.6802 15.9246 23.8132 15.9246 23.8132L15.311 23.7987C14.677 23.7665 14.0562 23.6952 13.4522 23.5848L13.4361 23.582C8.04643 22.6097 4 18.6689 4 12.937C4 6.34956 9.3429 1.00171 15.9246 1.00171L15.9509 1.00237Z" fill="black"/>
</svg>
