<svg width="91" height="32" viewBox="0 0 91 32" fill="none" xmlns="http://www.w3.org/2000/svg">
<g clip-path="url(#clip0_211_235)">
<path fill-rule="evenodd" clip-rule="evenodd" d="M10.4516 23.7132L10.9619 23.191C9.12477 21.3803 7.71617 20.1026 6.76801 18.8219C5.71857 17.4011 5.1693 15.968 5.1693 13.9487C5.1693 12.5081 5.51445 11.2578 5.971 10.2329C6.7649 8.45574 7.90158 7.36687 8.13609 7.15368L12.8263 2.35165H16.2317L14.4125 4.21452C16.1577 5.92774 17.5484 7.2085 18.5082 8.49075C19.613 9.9649 20.2067 11.4512 20.2067 13.4614C20.2067 14.902 19.8615 16.1538 19.405 17.1772C18.6087 18.9559 17.4736 20.0448 17.2398 20.2564L10.7398 26.9011L8.56459 25.6428L10.0823 24.0904C10.7266 24.2082 11.3888 24.2842 12.0651 24.3186L12.7195 24.334C12.7195 24.334 11.7729 24.191 10.4516 23.7132ZM12.7117 5.95519L9.84778 8.88671C9.82519 8.91104 9.79947 8.93389 9.77453 8.95674C9.77453 8.95674 8.8373 9.78516 8.19376 11.2273C7.85953 11.9781 7.6032 12.8934 7.6032 13.9487C7.6032 15.368 7.98729 16.3746 8.72665 17.3721C9.61482 18.5751 10.9447 19.7615 12.6642 21.4504L15.5282 18.5234C15.5508 18.499 15.5749 18.4762 15.6006 18.4549C15.6006 18.4549 16.5363 17.6249 17.1814 16.1813C17.5164 15.432 17.772 14.5167 17.772 13.4614C17.772 12.0406 17.3396 10.9943 16.5613 9.95273C15.6583 8.74659 14.3471 7.55417 12.7117 5.95519Z" fill="#007DD6"/>
<path fill-rule="evenodd" clip-rule="evenodd" d="M1.30731 3.05176e-05H5.37201L1.30731 3.47673V3.05176e-05Z" fill="#007DD6"/>
<path d="M13.9596 15.331C13.9596 14.3706 14.7387 13.5898 15.6983 13.5898C15.7851 13.5898 15.869 13.6025 15.9528 13.6152C15.8182 11.9736 14.4589 10.6765 12.7836 10.6765C11.0206 10.6765 9.58904 12.1093 9.58904 13.8748C9.58904 15.6394 11.0206 17.0722 12.7836 17.0722C13.4096 17.0722 13.9889 16.8848 14.4823 16.5734C14.1605 16.2572 13.9596 15.818 13.9596 15.331Z" fill="#73C3FF"/>
<path fill-rule="evenodd" clip-rule="evenodd" d="M12.7476 0.00247202H25.8341V12.9244C25.8341 25.1028 12.6969 32.0001 12.6969 32.0001L11.9334 31.1783L4.72522 23.4212L12.6969 28.0336C14.7343 27.0811 23.4617 22.4481 23.4617 12.9244V2.35167H12.6969V2.35152C6.98303 2.36352 2.34741 7.01069 2.34741 12.7328C2.34741 12.9422 2.35365 13.1497 2.36845 13.3553C2.6536 19.9075 7.49179 22.6473 10.4516 23.7132L10.4664 23.7188C11.7799 24.1921 12.7195 24.334 12.7195 24.334L12.0651 24.3186C11.3888 24.2842 10.7266 24.2082 10.0823 24.0904L10.0651 24.0874C4.31618 23.0503 -1.52588e-05 18.8468 -1.52588e-05 12.7328C-1.52588e-05 5.70614 5.69908 0.00177002 12.7195 0.00177002L12.7476 0.00247202Z" fill="black"/>
<path d="M32.2799 11.8104C31.5637 11.8104 30.8967 11.6785 30.2786 11.4149C29.6607 11.1512 29.1306 10.7817 28.6884 10.3067C28.2462 9.83158 27.9193 9.27934 27.7078 8.65008L29.4396 7.8935C29.7198 8.55329 30.1194 9.06722 30.6379 9.43542C31.1566 9.80349 31.7421 9.98752 32.3945 9.98752C32.7615 9.98752 33.0795 9.92958 33.3484 9.81371C33.6172 9.69783 33.8268 9.53732 33.9772 9.33218C34.1275 9.12717 34.2027 8.88573 34.2027 8.608C34.2027 8.26924 34.1033 7.99097 33.9046 7.77306C33.7058 7.55528 33.4051 7.38388 33.0023 7.25913L30.8157 6.55592C29.9339 6.27577 29.2669 5.8624 28.8145 5.31594C28.3621 4.76948 28.1359 4.1218 28.1359 3.37275C28.1359 2.71807 28.2972 2.14164 28.6195 1.64357C28.942 1.14551 29.3912 0.756335 29.9672 0.476182C30.5431 0.195895 31.2031 0.0558167 31.9474 0.0558167C32.6302 0.0558167 33.2579 0.17492 33.8301 0.413131C34.4021 0.651341 34.8941 0.981772 35.3056 1.40469C35.7172 1.82761 36.0237 2.32702 36.225 2.90278L34.5124 3.66312C34.2907 3.09757 33.9549 2.65879 33.505 2.34664C33.0552 2.03463 32.5373 1.87856 31.9511 1.87856C31.6046 1.87856 31.2981 1.93596 31.0317 2.05049C30.7654 2.16516 30.5597 2.3289 30.4143 2.54157C30.2691 2.75437 30.1964 3.00078 30.1964 3.28107C30.1964 3.59698 30.2984 3.87592 30.5022 4.1179C30.7061 4.36001 31.0145 4.54592 31.4275 4.67578L33.5185 5.33691C34.4308 5.62486 35.1145 6.0299 35.5694 6.55216C36.0242 7.07442 36.2518 7.71646 36.2518 8.47814C36.2518 9.12771 36.0829 9.70347 35.7452 10.2054C35.4075 10.7073 34.9418 11.1002 34.3479 11.3843C33.7542 11.6683 33.0649 11.8104 32.2799 11.8104Z" fill="black"/>
<path d="M40.0669 11.6269L37.0125 0.239197H39.2488L41.6418 9.9417H41.0607L43.5647 0.239197H45.7246L48.2247 9.9417H47.6399L50.0367 0.239197H52.2729L49.2187 11.6269H46.8294L44.3102 2.18816H44.9753L42.4561 11.6269H40.0669Z" fill="black"/>
<path d="M59.651 11.8104C58.9348 11.8104 58.2677 11.6785 57.6497 11.4149C57.0317 11.1512 56.5016 10.7817 56.0595 10.3067C55.6173 9.83158 55.2905 9.27934 55.079 8.65008L56.8107 7.8935C57.0909 8.55329 57.4905 9.06722 58.0091 9.43542C58.5277 9.80349 59.1132 9.98752 59.7657 9.98752C60.1326 9.98752 60.4506 9.92958 60.7194 9.81371C60.9883 9.69783 61.1979 9.53732 61.3483 9.33218C61.4986 9.12717 61.5738 8.88573 61.5738 8.608C61.5738 8.26924 61.4744 7.99097 61.2756 7.77306C61.0769 7.55528 60.7762 7.38388 60.3734 7.25913L58.1868 6.55592C57.305 6.27577 56.638 5.8624 56.1856 5.31594C55.7332 4.76948 55.507 4.1218 55.507 3.37275C55.507 2.71807 55.6683 2.14164 55.9906 1.64357C56.3131 1.14551 56.7623 0.756335 57.3382 0.476182C57.9142 0.195895 58.5742 0.0558167 59.3184 0.0558167C60.0013 0.0558167 60.6289 0.17492 61.2011 0.413131C61.7732 0.651341 62.2651 0.981772 62.6766 1.40469C63.0883 1.82761 63.3948 2.32702 63.5961 2.90278L61.8835 3.66312C61.6617 3.09757 61.3259 2.65879 60.8761 2.34664C60.4264 2.03463 59.9084 1.87856 59.3222 1.87856C58.9756 1.87856 58.6692 1.93596 58.4028 2.05049C58.1365 2.16516 57.9307 2.3289 57.7855 2.54157C57.6401 2.75437 57.5675 3.00078 57.5675 3.28107C57.5675 3.59698 57.6694 3.87592 57.8733 4.1179C58.0772 4.36001 58.3857 4.54592 58.7985 4.67578L60.8896 5.33691C61.8019 5.62486 62.4855 6.0299 62.9405 6.55216C63.3954 7.07442 63.6228 7.71646 63.6228 8.47814C63.6228 9.12771 63.4539 9.70347 63.1163 10.2054C62.7786 10.7073 62.3129 11.1002 61.719 11.3843C61.1253 11.6683 60.436 11.8104 59.651 11.8104Z" fill="black"/>
<path d="M67.5449 0.239197H65.4616V11.6269H67.5449V0.239197Z" fill="black"/>
<path d="M69.3761 11.6269V0.239197H71.364L75.634 6.03247H74.6821L78.8566 0.239197H80.8445V11.6269H78.761V2.61229L79.5714 2.81098L75.2325 8.56984H74.9879L70.7676 2.81098L71.4595 2.61229V11.6269H69.3761Z" fill="black"/>
<path d="M86.2269 11.8104C85.5108 11.8104 84.8436 11.6785 84.2257 11.4149C83.6076 11.1512 83.0775 10.7817 82.6353 10.3067C82.1932 9.83158 81.8664 9.27934 81.6549 8.65008L83.3865 7.8935C83.6669 8.55329 84.0663 9.06722 84.585 9.43542C85.1036 9.80349 85.6891 9.98752 86.3416 9.98752C86.7086 9.98752 87.0265 9.92958 87.2953 9.81371C87.5643 9.69783 87.7738 9.53732 87.9241 9.33218C88.0746 9.12717 88.1498 8.88573 88.1498 8.608C88.1498 8.26924 88.0504 7.99097 87.8515 7.77306C87.6528 7.55528 87.3521 7.38388 86.9494 7.25913L84.7628 6.55592C83.881 6.27577 83.2139 5.8624 82.7615 5.31594C82.3092 4.76948 82.083 4.1218 82.083 3.37275C82.083 2.71807 82.2441 2.14164 82.5666 1.64357C82.889 1.14551 83.3381 0.756335 83.9141 0.476182C84.4901 0.195895 85.1501 0.0558167 85.8943 0.0558167C86.5773 0.0558167 87.2049 0.17492 87.777 0.413131C88.3492 0.651341 88.841 0.981772 89.2527 1.40469C89.6642 1.82761 89.9706 2.32702 90.172 2.90278L88.4594 3.66312C88.2376 3.09757 87.902 2.65879 87.4521 2.34664C87.0023 2.03463 86.4843 1.87856 85.8981 1.87856C85.5515 1.87856 85.245 1.93596 84.9788 2.05049C84.7124 2.16516 84.5066 2.3289 84.3614 2.54157C84.2161 2.75437 84.1435 3.00078 84.1435 3.28107C84.1435 3.59698 84.2455 3.87592 84.4493 4.1179C84.6532 4.36001 84.9616 4.54592 85.3744 4.67578L87.4654 5.33691C88.3779 5.62486 89.0614 6.0299 89.5164 6.55216C89.9713 7.07442 90.1987 7.71646 90.1987 8.47814C90.1987 9.12771 90.03 9.70347 89.6923 10.2054C89.3546 10.7073 88.8888 11.1002 88.295 11.3843C87.7012 11.6683 87.0118 11.8104 86.2269 11.8104Z" fill="black"/>
<path d="M60.5851 21.0391C59.9758 21.0391 59.4442 20.8904 58.99 20.5932C58.5358 20.296 58.2175 19.894 58.0351 19.3871L58.9818 18.9386C59.1423 19.2777 59.3639 19.5458 59.6466 19.7427C59.9294 19.9396 60.2422 20.0381 60.5851 20.0381C60.8769 20.0381 61.1139 19.9715 61.2964 19.8384C61.4788 19.7053 61.57 19.5275 61.57 19.305C61.57 19.1592 61.5298 19.0408 61.4496 18.9496C61.3694 18.8583 61.269 18.7836 61.1487 18.7253C61.0283 18.667 60.9061 18.6214 60.782 18.5886L59.8518 18.326C59.3374 18.1802 58.9544 17.9604 58.7027 17.6669C58.451 17.3733 58.3251 17.0297 58.3251 16.6358C58.3251 16.2785 58.4164 15.9666 58.5988 15.7004C58.7811 15.4342 59.0328 15.2273 59.3539 15.0796C59.6749 14.9319 60.0378 14.8581 60.4427 14.8581C60.9827 14.8581 61.4642 14.9912 61.8874 15.2574C62.3105 15.5236 62.6096 15.8955 62.7848 16.3732L61.8271 16.8218C61.7104 16.5337 61.5262 16.3058 61.2745 16.138C61.0228 15.9703 60.74 15.8864 60.4264 15.8864C60.1564 15.8864 59.9421 15.9503 59.7834 16.0779C59.6247 16.2055 59.5454 16.3714 59.5454 16.5756C59.5454 16.7142 59.5819 16.8291 59.6549 16.9202C59.7278 17.0114 59.8226 17.0843 59.9394 17.1391C60.0561 17.1937 60.1765 17.2393 60.3005 17.2758L61.2635 17.5602C61.7487 17.7024 62.1236 17.9203 62.388 18.2138C62.6525 18.5074 62.7848 18.8602 62.7848 19.2722C62.7848 19.6187 62.6917 19.925 62.5057 20.1912C62.3196 20.4574 62.0624 20.6653 61.7342 20.8148C61.4059 20.9643 61.0228 21.0391 60.5851 21.0391Z" fill="black"/>
<path d="M65.7395 21.0391C65.3383 21.0391 64.9862 20.9688 64.6835 20.8285C64.3807 20.6881 64.1454 20.4912 63.9776 20.2377C63.8098 19.9843 63.7259 19.688 63.7259 19.3489C63.7259 19.028 63.797 18.7399 63.9393 18.4846C64.0816 18.2293 64.3013 18.0142 64.5986 17.8392C64.8959 17.6641 65.2708 17.5402 65.7232 17.4673L67.786 17.1281V18.1018L65.9693 18.4135C65.6411 18.4719 65.3994 18.5767 65.2443 18.728C65.0893 18.8793 65.0118 19.0718 65.0118 19.3051C65.0118 19.5275 65.0984 19.7099 65.2717 19.8521C65.445 19.9943 65.6647 20.0654 65.931 20.0654C66.2666 20.0654 66.5603 19.9934 66.812 19.8493C67.0638 19.7053 67.2598 19.5102 67.4002 19.2641C67.5407 19.018 67.6109 18.7453 67.6109 18.4463V17.3469C67.6109 16.964 67.4978 16.6623 67.2716 16.4417C67.0455 16.221 66.7245 16.1107 66.3086 16.1107H64.3278V14.9893H66.3634C66.8814 14.9893 67.3246 15.0824 67.693 15.2684C68.0614 15.4543 68.3451 15.7196 68.5438 16.0642C68.7427 16.4088 68.8421 16.8218 68.8421 17.3031V20.9078H67.6657V19.8412L67.9119 19.8685C67.7733 20.1092 67.5972 20.317 67.3839 20.4921C67.1704 20.6671 66.926 20.802 66.6506 20.8969C66.3752 20.9916 66.0715 21.0391 65.7395 21.0391Z" fill="black"/>
<path d="M70.8886 20.9077V16.1107H69.7996V14.9893H70.8886V14.6831C70.8886 14.2418 70.9807 13.869 71.1649 13.5645C71.3491 13.26 71.6036 13.0275 71.9282 12.867C72.2528 12.7066 72.6249 12.6264 73.0445 12.6264C73.1284 12.6264 73.2214 12.6319 73.3236 12.6428C73.4257 12.6537 73.5096 12.6665 73.5753 12.6811V13.7532C73.5133 13.7386 73.4467 13.7295 73.3755 13.7258C73.3044 13.7221 73.2451 13.7203 73.1977 13.7203C72.8694 13.7203 72.6076 13.796 72.4125 13.9474C72.2173 14.0987 72.1197 14.344 72.1197 14.6831V14.9893H73.4768V16.1107H72.1197V20.9077H70.8886Z" fill="black"/>
<path d="M77.0827 21.0391C76.4553 21.0391 75.9072 20.9023 75.4384 20.6288C74.9697 20.3553 74.6057 19.9833 74.3468 19.513C74.0878 19.0425 73.9583 18.5156 73.9583 17.9321C73.9583 17.3377 74.0869 16.8099 74.3441 16.3486C74.6012 15.8874 74.9495 15.5236 75.3892 15.2574C75.8287 14.9912 76.3239 14.8581 76.8747 14.8581C77.3234 14.8581 77.722 14.9347 78.0704 15.0878C78.4187 15.241 78.7142 15.4515 78.9568 15.7196C79.1994 15.9876 79.3845 16.293 79.5123 16.6358C79.6399 16.9786 79.7037 17.3414 79.7037 17.7243C79.7037 17.8191 79.6992 17.9176 79.69 18.0197C79.6809 18.1218 79.6654 18.2166 79.6435 18.3041H74.9268V17.3195H78.9432L78.3576 17.7681C78.427 17.4107 78.4024 17.0916 78.2838 16.8108C78.1652 16.53 77.9828 16.3076 77.7366 16.1435C77.4903 15.9794 77.203 15.8974 76.8747 15.8974C76.5501 15.8974 76.2592 15.9794 76.002 16.1435C75.7448 16.3076 75.5469 16.5419 75.4083 16.8464C75.2697 17.1509 75.215 17.5164 75.2441 17.9431C75.2113 18.3442 75.2697 18.6952 75.4192 18.996C75.5688 19.2969 75.7876 19.5303 76.0759 19.6961C76.3641 19.8621 76.6997 19.945 77.0827 19.945H79.2113V21.0391H77.0827Z" fill="black"/>
<path d="M83.4903 20.9735C82.8664 20.9735 82.384 20.7993 82.0429 20.451C81.7018 20.1028 81.5313 19.6114 81.5313 18.9769V16.1107H80.4862V14.9893H80.6504C80.9276 14.9893 81.1437 14.9101 81.2988 14.7514C81.4538 14.5928 81.5313 14.3749 81.5313 14.0978V13.6329H82.7625V14.9893H84.1086V16.1107H82.7625V18.9223C82.7625 19.1228 82.7953 19.2942 82.861 19.4364C82.9267 19.5786 83.0333 19.688 83.1811 19.7646C83.3289 19.8412 83.5194 19.8794 83.7529 19.8794C83.8076 19.8794 83.8714 19.8758 83.9445 19.8685C84.0174 19.8612 84.0867 19.854 84.1524 19.8466V20.9078C84.0539 20.926 83.9426 20.9415 83.8186 20.9543C83.6945 20.967 83.5851 20.9735 83.4903 20.9735Z" fill="black"/>
<path d="M87.6817 23.3146C87.0396 23.3146 86.487 23.1632 86.0238 22.8605C85.5604 22.5579 85.2376 22.1622 85.0553 21.6736L86.1934 21.2031C86.2846 21.4803 86.456 21.7101 86.7077 21.8924C86.9595 22.0747 87.2841 22.1659 87.6817 22.1659C87.9444 22.1659 88.1797 22.1203 88.3876 22.0291C88.5956 21.938 88.7624 21.7939 88.8882 21.597C89.0141 21.4001 89.0771 21.1485 89.0771 20.8421V19.4254L89.2631 19.5786C89.1244 19.9469 88.8937 20.2286 88.5709 20.4237C88.248 20.6188 87.8732 20.7164 87.4464 20.7164C87.0013 20.7164 86.6101 20.616 86.2728 20.4155C85.9353 20.2149 85.6745 19.9351 85.4903 19.5759C85.306 19.2167 85.2139 18.8001 85.2139 18.326V14.9893H86.445V18.2112C86.445 18.481 86.4998 18.718 86.6092 18.9223C86.7187 19.1264 86.8728 19.2851 87.0716 19.3981C87.2704 19.5112 87.4975 19.5676 87.7528 19.5676C88.0118 19.5676 88.2408 19.5102 88.4395 19.3953C88.6384 19.2805 88.7934 19.1173 88.9047 18.9058C89.016 18.6943 89.0716 18.4446 89.0716 18.1564V14.9893H90.3028V20.8421C90.3028 21.3491 90.1897 21.7875 89.9635 22.1576C89.7373 22.5277 89.4263 22.8131 89.0305 23.0137C88.6347 23.2142 88.1852 23.3146 87.6817 23.3146Z" fill="black"/>
</g>
<defs>
<clipPath id="clip0_211_235">
<rect width="90.3024" height="32" fill="white"/>
</clipPath>
</defs>
</svg>
