<svg width="136" height="48" viewBox="0 0 136 48" fill="none" xmlns="http://www.w3.org/2000/svg">
<g clip-path="url(#clip0_211_235)">
<path fill-rule="evenodd" clip-rule="evenodd" d="M15.6774 35.5698L16.4428 34.7865C13.6871 32.0704 11.5743 30.154 10.152 28.2328C8.57785 26.1016 7.75395 23.952 7.75395 20.9231C7.75395 18.7622 8.27167 16.8868 8.95649 15.3494C10.1473 12.6836 11.8524 11.0503 12.2041 10.7305L19.2394 3.5275H24.3475L21.6187 6.32179C24.2365 8.89162 26.3226 10.8128 27.7623 12.7361C29.4195 14.9474 30.31 17.1768 30.31 20.1921C30.31 22.353 29.7923 24.2307 29.1074 25.7658C27.9131 28.4339 26.2104 30.0672 25.8598 30.3846L16.1098 40.3517L12.8469 38.4642L15.1234 36.1357C16.0899 36.3123 17.0832 36.4263 18.0976 36.4779L19.0793 36.5011C19.0793 36.5011 17.6594 36.2865 15.6774 35.5698ZM19.0676 8.93279L14.7717 13.3301C14.7378 13.3666 14.6992 13.4009 14.6618 13.4351C14.6618 13.4351 13.2559 14.6778 12.2906 16.841C11.7893 17.9672 11.4048 19.3401 11.4048 20.9231C11.4048 23.0521 11.9809 24.562 13.09 26.0582C14.4222 27.8627 16.4171 29.6422 18.9963 32.1756L23.2923 27.7851C23.3261 27.7486 23.3624 27.7143 23.4009 27.6824C23.4009 27.6824 24.8045 26.4374 25.7721 24.2719C26.2746 23.148 26.658 21.7751 26.658 20.1921C26.658 18.0608 26.0094 16.4915 24.8419 14.9291C23.4874 13.1199 21.5206 11.3313 19.0676 8.93279Z" fill="#007DD6"/>
<path fill-rule="evenodd" clip-rule="evenodd" d="M1.96098 6.10352e-05H8.05802L1.96098 5.21511V6.10352e-05Z" fill="#007DD6"/>
<path d="M20.9394 22.9965C20.9394 21.5559 22.1081 20.3847 23.5474 20.3847C23.6776 20.3847 23.8034 20.4038 23.9292 20.4228C23.7274 17.9604 21.6883 16.0147 19.1754 16.0147C16.5308 16.0147 14.3836 18.1639 14.3836 20.8122C14.3836 23.4591 16.5308 25.6082 19.1754 25.6082C20.1145 25.6082 20.9833 25.3271 21.7234 24.8601C21.2407 24.3858 20.9394 23.727 20.9394 22.9965Z" fill="#73C3FF"/>
<path fill-rule="evenodd" clip-rule="evenodd" d="M19.1214 0.00367751H38.7511V19.3866C38.7511 37.6542 19.0454 48.0001 19.0454 48.0001L17.9001 46.7674L7.08782 35.1317L19.0454 42.0504C22.1014 40.6216 35.1926 33.6721 35.1926 19.3866V3.52747H19.0454V3.52724C10.4745 3.54526 3.52111 10.516 3.52111 19.0991C3.52111 19.4133 3.53046 19.7245 3.55267 20.033C3.98039 29.8613 11.2377 33.971 15.6774 35.5698L15.6996 35.5782C17.6699 36.2882 19.0793 36.501 19.0793 36.501L18.0976 36.4779C17.0832 36.4263 16.0899 36.3122 15.1234 36.1356L15.0977 36.1311C6.47426 34.5754 -3.05176e-05 28.2702 -3.05176e-05 19.0991C-3.05176e-05 8.55919 8.54861 0.00262451 19.0793 0.00262451L19.1214 0.00367751Z" fill="black"/>
<path d="M48.4199 17.7156C47.3455 17.7156 46.345 17.5178 45.4179 17.1224C44.491 16.7267 43.6958 16.1726 43.0326 15.46C42.3693 14.7474 41.8789 13.919 41.5616 12.9751L44.1594 11.8403C44.5798 12.8299 45.1791 13.6008 45.9569 14.1531C46.7349 14.7052 47.6132 14.9813 48.5917 14.9813C49.1422 14.9813 49.6193 14.8944 50.0225 14.7206C50.4258 14.5468 50.7403 14.306 50.9658 13.9983C51.1913 13.6908 51.3041 13.3286 51.3041 12.912C51.3041 12.4039 51.155 11.9865 50.8568 11.6596C50.5587 11.3329 50.1077 11.0758 49.5035 10.8887L46.2236 9.8339C44.9009 9.41367 43.9004 8.79361 43.2218 7.97392C42.5432 7.15423 42.2039 6.18271 42.2039 5.05914C42.2039 4.07713 42.4458 3.21247 42.9293 2.46537C43.413 1.71828 44.0868 1.13452 44.9507 0.714288C45.8147 0.293858 46.8047 0.0837402 47.921 0.0837402C48.9454 0.0837402 49.8868 0.262396 50.7451 0.619711C51.6032 0.977027 52.3411 1.47267 52.9583 2.10705C53.5758 2.74143 54.0355 3.49054 54.3375 4.35419L51.7686 5.49469C51.436 4.64637 50.9323 3.9882 50.2575 3.51998C49.5828 3.05196 48.806 2.81785 47.9267 2.81785C47.4068 2.81785 46.9471 2.90395 46.5475 3.07576C46.1481 3.24776 45.8395 3.49336 45.6214 3.81236C45.4036 4.13157 45.2947 4.50119 45.2947 4.92162C45.2947 5.39548 45.4476 5.8139 45.7534 6.17686C46.0592 6.54002 46.5217 6.8189 47.1412 7.01369L50.2777 8.00538C51.6462 8.4373 52.6717 9.04486 53.3541 9.82825C54.0363 10.6116 54.3776 11.5747 54.3776 12.7172C54.3776 13.6916 54.1243 14.5552 53.6178 15.3082C53.1113 16.0609 52.4127 16.6503 51.5219 17.0764C50.6313 17.5025 49.5973 17.7156 48.4199 17.7156Z" fill="black"/>
<path d="M60.1004 17.4404L55.5188 0.358795H58.8732L62.4627 14.9125H61.5911L65.3471 0.358795H68.5869L72.3371 14.9125H71.4598L75.055 0.358795H78.4094L73.828 17.4404H70.244L66.4653 3.28225H67.463L63.6841 17.4404H60.1004Z" fill="black"/>
<path d="M89.4765 17.7156C88.4021 17.7156 87.4016 17.5178 86.4745 17.1224C85.5476 16.7267 84.7524 16.1726 84.0892 15.46C83.4259 14.7474 82.9358 13.919 82.6185 12.9751L85.216 11.8403C85.6364 12.8299 86.2357 13.6008 87.0137 14.1531C87.7915 14.7052 88.6698 14.9813 89.6486 14.9813C90.1988 14.9813 90.6759 14.8944 91.0791 14.7206C91.4824 14.5468 91.7969 14.306 92.0224 13.9983C92.2479 13.6908 92.3607 13.3286 92.3607 12.912C92.3607 12.4039 92.2116 11.9865 91.9135 11.6596C91.6153 11.3329 91.1643 11.0758 90.5601 10.8887L87.2802 9.8339C85.9575 9.41367 84.957 8.79361 84.2784 7.97392C83.5998 7.15423 83.2605 6.18271 83.2605 5.05914C83.2605 4.07713 83.5024 3.21247 83.9859 2.46537C84.4696 1.71828 85.1434 1.13452 86.0073 0.714288C86.8713 0.293858 87.8613 0.0837402 88.9776 0.0837402C90.002 0.0837402 90.9434 0.262396 91.8017 0.619711C92.6598 0.977027 93.3977 1.47267 94.015 2.10705C94.6324 2.74143 95.0921 3.49054 95.3941 4.35419L92.8252 5.49469C92.4926 4.64637 91.9889 3.9882 91.3141 3.51998C90.6396 3.05196 89.8626 2.81785 88.9833 2.81785C88.4635 2.81785 88.0037 2.90395 87.6041 3.07576C87.2047 3.24776 86.8961 3.49336 86.6783 3.81236C86.4602 4.13157 86.3513 4.50119 86.3513 4.92162C86.3513 5.39548 86.5042 5.8139 86.81 6.17686C87.1158 6.54002 87.5785 6.8189 88.1978 7.01369L91.3343 8.00538C92.7028 8.4373 93.7283 9.04486 94.4107 9.82825C95.0931 10.6116 95.4342 11.5747 95.4342 12.7172C95.4342 13.6916 95.1809 14.5552 94.6744 15.3082C94.1679 16.0609 93.4693 16.6503 92.5785 17.0764C91.6879 17.5025 90.6539 17.7156 89.4765 17.7156Z" fill="black"/>
<path d="M101.317 0.358795H98.1924V17.4404H101.317V0.358795Z" fill="black"/>
<path d="M104.064 17.4404V0.358795H107.046L113.451 9.0487H112.023L118.285 0.358795H121.267V17.4404H118.142V3.91844L119.357 4.21647L112.849 12.8548H112.482L106.151 4.21647L107.189 3.91844V17.4404H104.064Z" fill="black"/>
<path d="M129.34 17.7156C128.266 17.7156 127.265 17.5178 126.339 17.1224C125.411 16.7267 124.616 16.1726 123.953 15.46C123.29 14.7474 122.8 13.919 122.482 12.9751L125.08 11.8403C125.5 12.8299 126.1 13.6008 126.878 14.1531C127.655 14.7052 128.534 14.9813 129.512 14.9813C130.063 14.9813 130.54 14.8944 130.943 14.7206C131.346 14.5468 131.661 14.306 131.886 13.9983C132.112 13.6908 132.225 13.3286 132.225 12.912C132.225 12.4039 132.076 11.9865 131.777 11.6596C131.479 11.3329 131.028 11.0758 130.424 10.8887L127.144 9.8339C125.822 9.41367 124.821 8.79361 124.142 7.97392C123.464 7.15423 123.125 6.18271 123.125 5.05914C123.125 4.07713 123.366 3.21247 123.85 2.46537C124.333 1.71828 125.007 1.13452 125.871 0.714288C126.735 0.293858 127.725 0.0837402 128.841 0.0837402C129.866 0.0837402 130.807 0.262396 131.666 0.619711C132.524 0.977027 133.262 1.47267 133.879 2.10705C134.496 2.74143 134.956 3.49054 135.258 4.35419L132.689 5.49469C132.356 4.64637 131.853 3.9882 131.178 3.51998C130.503 3.05196 129.726 2.81785 128.847 2.81785C128.327 2.81785 127.868 2.90395 127.468 3.07576C127.069 3.24776 126.76 3.49336 126.542 3.81236C126.324 4.13157 126.215 4.50119 126.215 4.92162C126.215 5.39548 126.368 5.8139 126.674 6.17686C126.98 6.54002 127.442 6.8189 128.062 7.01369L131.198 8.00538C132.567 8.4373 133.592 9.04486 134.275 9.82825C134.957 10.6116 135.298 11.5747 135.298 12.7172C135.298 13.6916 135.045 14.5552 134.538 15.3082C134.032 16.0609 133.333 16.6503 132.443 17.0764C131.552 17.5025 130.518 17.7156 129.34 17.7156Z" fill="black"/>
<path d="M90.8776 31.5586C89.9638 31.5586 89.1663 31.3356 88.485 30.8898C87.8037 30.4441 87.3263 29.8411 87.0527 29.0807L88.4727 28.4079C88.7134 28.9166 89.0459 29.3187 89.4699 29.6141C89.894 29.9094 90.3632 30.0571 90.8776 30.0571C91.3153 30.0571 91.6709 29.9573 91.9446 29.7577C92.2182 29.558 92.3549 29.2913 92.3549 28.9576C92.3549 28.7388 92.2947 28.5612 92.1743 28.4244C92.0541 28.2875 91.9035 28.1754 91.723 28.088C91.5424 28.0005 91.3591 27.9321 91.173 27.8829L89.7777 27.489C89.0062 27.2703 88.4316 26.9406 88.0541 26.5003C87.6765 26.06 87.4877 25.5445 87.4877 24.9537C87.4877 24.4177 87.6246 23.95 87.8981 23.5507C88.1717 23.1513 88.5492 22.8409 89.0309 22.6194C89.5123 22.3979 90.0567 22.2872 90.6641 22.2872C91.474 22.2872 92.1963 22.4868 92.8311 22.8861C93.4657 23.2854 93.9144 23.8433 94.1772 24.5599L92.7407 25.2327C92.5656 24.8006 92.2893 24.4587 91.9117 24.207C91.5342 23.9555 91.1101 23.8296 90.6396 23.8296C90.2346 23.8296 89.9131 23.9254 89.6752 24.1168C89.4371 24.3083 89.3182 24.5571 89.3182 24.8635C89.3182 25.0713 89.3729 25.2436 89.4823 25.3803C89.5917 25.5171 89.7339 25.6265 89.9091 25.7086C90.0842 25.7906 90.2648 25.859 90.4507 25.9137L91.8953 26.3403C92.623 26.5536 93.1854 26.8805 93.5821 27.3208C93.9788 27.7611 94.1772 28.2903 94.1772 28.9084C94.1772 29.4281 94.0376 29.8876 93.7585 30.2869C93.4794 30.6861 93.0937 30.9979 92.6012 31.2222C92.1088 31.4465 91.5342 31.5586 90.8776 31.5586Z" fill="black"/>
<path d="M98.6093 31.5586C98.0074 31.5586 97.4793 31.4533 97.0253 31.2427C96.5711 31.0321 96.2181 30.7367 95.9665 30.3566C95.7147 29.9765 95.5888 29.532 95.5888 29.0233C95.5888 28.542 95.6955 28.1099 95.909 27.7269C96.1224 27.344 96.452 27.0213 96.8979 26.7588C97.3439 26.4961 97.9062 26.3103 98.5847 26.2009L101.679 25.6922V27.1526L98.954 27.6202C98.4616 27.7078 98.0991 27.865 97.8665 28.092C97.6339 28.319 97.5177 28.6076 97.5177 28.9576C97.5177 29.2913 97.6476 29.5649 97.9075 29.7782C98.1675 29.9915 98.4971 30.0981 98.8966 30.0981C99.4 30.0981 99.8405 29.99 100.218 29.774C100.596 29.558 100.89 29.2653 101.1 28.8961C101.311 28.527 101.416 28.118 101.416 27.6694V26.0203C101.416 25.446 101.247 24.9934 100.907 24.6625C100.568 24.3315 100.087 24.166 99.4629 24.166H96.4917V22.484H99.5451C100.322 22.484 100.987 22.6236 101.54 22.9025C102.092 23.1815 102.518 23.5794 102.816 24.0963C103.114 24.6132 103.263 25.2327 103.263 25.9547V31.3616H101.499V29.7617L101.868 29.8027C101.66 30.1638 101.396 30.4755 101.076 30.7382C100.756 31.0007 100.389 31.203 99.9759 31.3453C99.5628 31.4875 99.1072 31.5586 98.6093 31.5586Z" fill="black"/>
<path d="M106.333 31.3616V24.166H104.699V22.484H106.333V22.0247C106.333 21.3627 106.471 20.8034 106.747 20.3467C107.024 19.8899 107.405 19.5413 107.892 19.3005C108.379 19.06 108.937 18.9396 109.567 18.9396C109.693 18.9396 109.832 18.9478 109.985 18.9641C110.139 18.9806 110.264 18.9998 110.363 19.0216V20.6298C110.27 20.6079 110.17 20.5942 110.063 20.5887C109.957 20.5832 109.868 20.5805 109.797 20.5805C109.304 20.5805 108.911 20.6941 108.619 20.9211C108.326 21.1481 108.18 21.5159 108.18 22.0247V22.484H110.215V24.166H108.18V31.3616H106.333Z" fill="black"/>
<path d="M115.624 31.5586C114.683 31.5586 113.861 31.3535 113.158 30.9432C112.454 30.533 111.909 29.975 111.52 29.2695C111.132 28.5638 110.937 27.7735 110.937 26.8982C110.937 26.0066 111.13 25.2149 111.516 24.5229C111.902 23.8311 112.424 23.2854 113.084 22.8861C113.743 22.4868 114.486 22.2872 115.312 22.2872C115.985 22.2872 116.583 22.402 117.106 22.6318C117.628 22.8615 118.071 23.1773 118.435 23.5794C118.799 23.9814 119.077 24.4395 119.268 24.9537C119.46 25.4679 119.556 26.0121 119.556 26.5865C119.556 26.7286 119.549 26.8764 119.535 27.0295C119.521 27.1827 119.498 27.325 119.465 27.4561H112.39V25.9794H118.415L117.536 26.6522C117.64 26.116 117.604 25.6375 117.426 25.2162C117.248 24.7951 116.974 24.4614 116.605 24.2152C116.235 23.9692 115.805 23.8461 115.312 23.8461C114.825 23.8461 114.389 23.9692 114.003 24.2152C113.617 24.4614 113.32 24.8128 113.113 25.2696C112.904 25.7264 112.822 26.2746 112.866 26.9147C112.817 27.5163 112.904 28.0428 113.129 28.4941C113.353 28.9453 113.681 29.2954 114.114 29.5442C114.546 29.7932 115.05 29.9176 115.624 29.9176H118.817V31.5586H115.624Z" fill="black"/>
<path d="M125.235 31.4602C124.3 31.4602 123.576 31.199 123.064 30.6765C122.553 30.1541 122.297 29.4171 122.297 28.4653V24.166H120.729V22.484H120.976C121.391 22.484 121.716 22.3651 121.948 22.1271C122.181 21.8891 122.297 21.5624 122.297 21.1466V20.4493H124.144V22.484H126.163V24.166H124.144V28.3833C124.144 28.6841 124.193 28.9413 124.292 29.1546C124.39 29.3679 124.55 29.532 124.772 29.6468C124.993 29.7617 125.279 29.8191 125.629 29.8191C125.711 29.8191 125.807 29.8137 125.917 29.8027C126.026 29.7917 126.13 29.7809 126.229 29.7699V31.3616C126.081 31.389 125.914 31.4122 125.728 31.4314C125.542 31.4505 125.378 31.4602 125.235 31.4602Z" fill="black"/>
<path d="M131.523 34.9718C130.559 34.9718 129.731 34.7448 129.036 34.2908C128.341 33.8368 127.856 33.2433 127.583 32.5104L129.29 31.8047C129.427 32.2204 129.684 32.5651 130.062 32.8385C130.439 33.112 130.926 33.2488 131.523 33.2488C131.917 33.2488 132.27 33.1804 132.581 33.0436C132.893 32.9069 133.144 32.6909 133.332 32.3955C133.521 32.1001 133.616 31.7227 133.616 31.2632V29.1381L133.895 29.3679C133.687 29.9203 133.341 30.3429 132.856 30.6356C132.372 30.9282 131.81 31.0746 131.17 31.0746C130.502 31.0746 129.915 30.924 129.409 30.6233C128.903 30.3224 128.512 29.9026 128.235 29.3638C127.959 28.825 127.821 28.2001 127.821 27.489V22.484H129.668V27.3167C129.668 27.7215 129.75 28.077 129.914 28.3834C130.078 28.6896 130.309 28.9276 130.607 29.0971C130.906 29.2667 131.246 29.3514 131.629 29.3514C132.018 29.3514 132.361 29.2653 132.659 29.093C132.958 28.9208 133.19 28.6759 133.357 28.3587C133.524 28.0415 133.607 27.6668 133.607 27.2346V22.484H135.454V31.2632C135.454 32.0236 135.285 32.6812 134.945 33.2364C134.606 33.7916 134.14 34.2196 133.546 34.5205C132.952 34.8213 132.278 34.9718 131.523 34.9718Z" fill="black"/>
</g>
<defs>
<clipPath id="clip0_211_235">
<rect width="135.454" height="48" fill="white"/>
</clipPath>
</defs>
</svg>
