<?xml version="1.0" encoding="UTF-8" standalone="no"?>
<!DOCTYPE svg PUBLIC "-//W3C//DTD SVG 1.1//EN" "http://www.w3.org/Graphics/SVG/1.1/DTD/svg11.dtd">
<svg width="100%" height="100%" viewBox="0 0 332 411" version="1.1" xmlns="http://www.w3.org/2000/svg" xmlns:xlink="http://www.w3.org/1999/xlink" xml:space="preserve" xmlns:serif="http://www.serif.com/" style="fill-rule:evenodd;clip-rule:evenodd;stroke-linejoin:round;stroke-miterlimit:2;">
    <g transform="matrix(1,0,0,1,-2499.2,-601.45)">
        <g transform="matrix(1,0,0,1,2097.07,0)">
            <g transform="matrix(1,0,0,1,0,266.63)">
                <g transform="matrix(1,0,0,1,-2097.07,0)">
                    <path d="M2633.35,638.925L2639.9,632.228C2616.32,609.007 2598.24,592.622 2586.07,576.197C2572.6,557.976 2565.55,539.598 2565.55,513.702C2565.55,495.227 2569.98,479.193 2575.84,466.049C2586.03,443.258 2600.62,429.294 2603.63,426.56L2663.83,364.977L2707.54,364.977L2684.19,388.867C2706.59,410.838 2724.44,427.263 2736.76,443.707C2750.94,462.612 2758.56,481.673 2758.56,507.452C2758.56,525.927 2754.13,541.981 2748.27,555.105C2738.05,577.916 2723.48,591.88 2720.48,594.594L2637.05,679.808L2609.13,663.671L2628.61,643.763C2636.88,645.273 2645.38,646.248 2654.06,646.689L2662.46,646.887C2662.46,646.887 2650.31,645.053 2633.35,638.925ZM2662.36,411.19L2625.6,448.785C2625.31,449.097 2624.98,449.39 2624.66,449.683C2624.66,449.683 2612.63,460.307 2604.37,478.802C2600.08,488.43 2596.79,500.168 2596.79,513.702C2596.79,531.904 2601.72,544.813 2611.21,557.605C2622.61,573.033 2639.68,588.247 2661.75,609.906L2698.51,572.369C2698.8,572.057 2699.11,571.764 2699.44,571.491C2699.44,571.491 2711.45,560.847 2719.73,542.333C2724.03,532.724 2727.31,520.986 2727.31,507.452C2727.31,489.231 2721.76,475.814 2711.77,462.456C2700.18,446.988 2683.35,431.696 2662.36,411.19Z" style="fill:rgb(54,130,245);"/>
                </g>
                <g transform="matrix(1.95298,0,0,1.95298,-1356.22,-1634.82)">
                    <path d="M908.934,1008.53L935.648,1008.53L908.934,1031.36L908.934,1008.53Z" style="fill:rgb(54,130,245);"/>
                </g>
                <g transform="matrix(12.5163,0,0,12.5164,-4303.73,-3468.6)">
                    <path d="M390.294,319.583C390.294,318.599 391.093,317.799 392.077,317.799C392.166,317.799 392.252,317.812 392.338,317.825C392.2,316.143 390.806,314.814 389.088,314.814C387.28,314.814 385.812,316.282 385.812,318.091C385.812,319.899 387.28,321.367 389.088,321.367C389.73,321.367 390.324,321.175 390.83,320.856C390.5,320.532 390.294,320.082 390.294,319.583Z" style="fill:rgb(102,178,255);fill-rule:nonzero;"/>
                </g>
                <g transform="matrix(1,0,0,1,-2097.07,0)">
                    <path d="M2662.82,334.85L2830.79,334.85L2830.79,500.566C2830.79,656.746 2662.17,745.199 2662.17,745.199L2652.37,734.66L2559.85,635.18L2662.17,694.332C2688.32,682.116 2800.34,622.701 2800.34,500.566L2800.34,364.977L2662.17,364.977L2662.17,364.975C2588.83,365.129 2529.33,424.726 2529.33,498.108C2529.33,500.794 2529.41,503.455 2529.6,506.092C2533.26,590.12 2595.36,625.256 2633.35,638.925L2633.54,638.997C2650.4,645.067 2662.46,646.887 2662.46,646.887L2654.06,646.689C2645.38,646.248 2636.88,645.273 2628.61,643.763L2628.39,643.724C2554.6,630.424 2499.2,576.517 2499.2,498.108C2499.2,407.996 2572.35,334.841 2662.46,334.841L2662.82,334.85Z" style="fill:rgb(1,5,5);fill-opacity:0.71;"/>
                </g>
            </g>
        </g>
    </g>
</svg>
