<?xml version="1.0" encoding="UTF-8" standalone="no"?>
<!DOCTYPE svg PUBLIC "-//W3C//DTD SVG 1.1//EN" "http://www.w3.org/Graphics/SVG/1.1/DTD/svg11.dtd">
<svg width="100%" height="100%" viewBox="0 0 946 411" version="1.1" xmlns="http://www.w3.org/2000/svg" xmlns:xlink="http://www.w3.org/1999/xlink" xml:space="preserve" xmlns:serif="http://www.serif.com/" style="fill-rule:evenodd;clip-rule:evenodd;stroke-linejoin:round;stroke-miterlimit:2;">
    <g transform="matrix(1,0,0,1,-487.182,540.368)">
        <g>
            <g transform="matrix(0.670304,0,0,0.670304,352.854,-1088.57)">
                <g>
                    <path d="M783.156,1007.53C771.031,1007.53 755.528,1004.89 736.647,999.598L736.647,974.207C756.992,983.647 773.716,988.367 786.818,988.367C796.909,988.367 805.027,985.723 811.171,980.433C817.316,975.143 820.388,968.185 820.388,959.559C820.388,952.479 818.373,946.457 814.345,941.492C810.317,936.528 802.891,930.994 792.067,924.891L779.616,917.689C764.235,908.9 753.391,900.619 747.084,892.847C740.777,885.076 737.624,876.022 737.624,865.687C737.624,851.771 742.67,840.316 752.761,831.324C762.852,822.331 775.71,817.835 791.335,817.835C805.251,817.835 819.94,820.154 835.402,824.793L835.402,848.231C816.359,840.744 802.158,837 792.8,837C783.929,837 776.605,839.36 770.827,844.08C765.049,848.8 762.16,854.741 762.16,861.903C762.16,867.925 764.276,873.255 768.508,877.894C772.74,882.532 780.471,888.066 791.701,894.495L804.641,901.82C820.266,910.69 831.171,919.072 837.355,926.966C843.54,934.86 846.633,944.341 846.633,955.408C846.633,971.115 840.834,983.729 829.238,993.25C817.641,1002.77 802.281,1007.53 783.156,1007.53Z" style="fill:rgb(77,77,77);fill-rule:nonzero;"/>
                    <path d="M903.337,1003.02L856.828,822.352L881.486,822.352L918.474,965.052L952.531,822.352L977.189,822.352L1009.42,963.099L1049.21,822.352L1070.09,822.352L1019.43,1003.02L993.913,1003.02L962.053,863.734L928.727,1003.02L903.337,1003.02Z" style="fill:rgb(77,77,77);fill-rule:nonzero;"/>
                    <path d="M1166.67,1007.53C1154.54,1007.53 1139.04,1004.89 1120.16,999.598L1120.16,974.207C1140.5,983.647 1157.23,988.367 1170.33,988.367C1180.42,988.367 1188.54,985.723 1194.68,980.433C1200.83,975.143 1203.9,968.185 1203.9,959.559C1203.9,952.479 1201.88,946.457 1197.86,941.492C1193.83,936.528 1186.4,930.994 1175.58,924.891L1163.13,917.689C1147.75,908.9 1136.9,900.619 1130.6,892.847C1124.29,885.076 1121.13,876.022 1121.13,865.687C1121.13,851.771 1126.18,840.316 1136.27,831.324C1146.36,822.331 1159.22,817.835 1174.85,817.835C1188.76,817.835 1203.45,820.154 1218.91,824.793L1218.91,848.231C1199.87,840.744 1185.67,837 1176.31,837C1167.44,837 1160.12,839.36 1154.34,844.08C1148.56,848.8 1145.67,854.741 1145.67,861.903C1145.67,867.925 1147.79,873.255 1152.02,877.894C1156.25,882.532 1163.98,888.066 1175.21,894.495L1188.15,901.82C1203.78,910.69 1214.68,919.072 1220.87,926.966C1227.05,934.86 1230.14,944.341 1230.14,955.408C1230.14,971.115 1224.35,983.729 1212.75,993.25C1201.15,1002.77 1185.79,1007.53 1166.67,1007.53Z" style="fill:rgb(77,77,77);fill-rule:nonzero;"/>
                    <rect x="1248.29" y="822.352" width="25.635" height="180.664" style="fill:rgb(77,77,77);fill-rule:nonzero;"/>
                    <path d="M1297.93,1003.02L1297.93,822.352L1333.45,822.352L1383.5,962.122L1435.02,822.352L1466.76,822.352L1466.76,1003.02L1442.83,1003.02L1442.83,856.043L1393.02,990.931L1368.24,990.931L1319.9,855.677L1319.9,1003.02L1297.93,1003.02Z" style="fill:rgb(77,77,77);fill-rule:nonzero;"/>
                    <path d="M1536.16,1007.53C1524.04,1007.53 1508.54,1004.89 1489.65,999.598L1489.65,974.207C1510,983.647 1526.72,988.367 1539.83,988.367C1549.92,988.367 1558.04,985.723 1564.18,980.433C1570.32,975.143 1573.39,968.185 1573.39,959.559C1573.39,952.479 1571.38,946.457 1567.35,941.492C1563.33,936.528 1555.9,930.994 1545.08,924.891L1532.62,917.689C1517.24,908.9 1506.4,900.619 1500.09,892.847C1493.79,885.076 1490.63,876.022 1490.63,865.687C1490.63,851.771 1495.68,840.316 1505.77,831.324C1515.86,822.331 1528.72,817.835 1544.34,817.835C1558.26,817.835 1572.95,820.154 1588.41,824.793L1588.41,848.231C1569.37,840.744 1555.17,837 1545.81,837C1536.94,837 1529.61,839.36 1523.84,844.08C1518.06,848.8 1515.17,854.741 1515.17,861.903C1515.17,867.925 1517.28,873.255 1521.52,877.894C1525.75,882.532 1533.48,888.066 1544.71,894.495L1557.65,901.82C1573.27,910.69 1584.18,919.072 1590.36,926.966C1596.55,934.86 1599.64,944.341 1599.64,955.408C1599.64,971.115 1593.84,983.729 1582.25,993.25C1570.65,1002.77 1555.29,1007.53 1536.16,1007.53Z" style="fill:rgb(77,77,77);fill-rule:nonzero;"/>
                    <path d="M1228.65,1144.97C1221.62,1144.97 1213.08,1143.33 1203.03,1140.05L1203.03,1125.91C1213.08,1130.91 1221.83,1133.41 1229.28,1133.41C1233.71,1133.41 1237.38,1132.21 1240.3,1129.81C1243.21,1127.42 1244.67,1124.42 1244.67,1120.83C1244.67,1115.57 1240.58,1111.22 1232.4,1107.78L1223.42,1103.95C1210.14,1098.43 1203.5,1090.49 1203.5,1080.12C1203.5,1072.73 1206.12,1066.91 1211.35,1062.66C1216.58,1058.42 1223.76,1056.3 1232.87,1056.3C1237.61,1056.3 1243.47,1056.95 1250.45,1058.25L1253.65,1058.88L1253.65,1071.69C1245.06,1069.14 1238.24,1067.86 1233.19,1067.86C1223.29,1067.86 1218.34,1071.45 1218.34,1078.64C1218.34,1083.28 1222.09,1087.18 1229.59,1090.36L1237.01,1093.49C1245.4,1097.03 1251.34,1100.76 1254.83,1104.69C1258.32,1108.63 1260.06,1113.54 1260.06,1119.42C1260.06,1126.87 1257.12,1132.99 1251.23,1137.78C1245.35,1142.57 1237.82,1144.97 1228.65,1144.97Z" style="fill:rgb(77,77,77);fill-rule:nonzero;"/>
                    <path d="M1320.27,1132.24C1311.05,1140.72 1302.17,1144.97 1293.63,1144.97C1286.6,1144.97 1280.76,1142.77 1276.13,1138.37C1271.49,1133.97 1269.17,1128.41 1269.17,1121.69C1269.17,1112.42 1273.07,1105.29 1280.85,1100.32C1288.64,1095.35 1299.8,1092.86 1314.33,1092.86L1318,1092.86L1318,1082.62C1318,1072.78 1312.95,1067.86 1302.85,1067.86C1294.72,1067.86 1285.94,1070.36 1276.52,1075.36L1276.52,1062.62C1286.88,1058.41 1296.6,1056.3 1305.66,1056.3C1315.14,1056.3 1322.13,1058.43 1326.63,1062.7C1331.14,1066.97 1333.39,1073.62 1333.39,1082.62L1333.39,1121.06C1333.39,1129.87 1336.1,1134.27 1341.52,1134.27C1342.19,1134.27 1343.18,1134.16 1344.49,1133.95L1345.58,1142.47C1342.09,1144.14 1338.24,1144.97 1334.02,1144.97C1326.83,1144.97 1322.25,1140.72 1320.27,1132.24ZM1318,1123.88L1318,1101.92L1312.85,1101.77C1304.41,1101.77 1297.58,1103.37 1292.38,1106.57C1287.17,1109.77 1284.56,1113.98 1284.56,1119.19C1284.56,1122.89 1285.87,1126.01 1288.47,1128.56C1291.07,1131.12 1294.25,1132.39 1298,1132.39C1304.41,1132.39 1311.07,1129.55 1318,1123.88Z" style="fill:rgb(77,77,77);fill-rule:nonzero;"/>
                    <path d="M1372.04,1069.74L1372.04,1143.02L1356.57,1143.02L1356.57,1069.74L1344.54,1069.74L1344.54,1058.17L1356.57,1058.17L1356.57,1048.02C1356.57,1027.81 1365.79,1017.7 1384.22,1017.7C1389.38,1017.7 1395.24,1018.56 1401.8,1020.28L1401.8,1032.47C1394.87,1030.33 1389.33,1029.27 1385.16,1029.27C1380.11,1029.27 1376.66,1030.48 1374.81,1032.9C1372.96,1035.32 1372.04,1039.81 1372.04,1046.38L1372.04,1058.17L1393.21,1058.17L1393.21,1069.74L1372.04,1069.74Z" style="fill:rgb(77,77,77);fill-rule:nonzero;"/>
                    <path d="M1466.69,1140.28C1456.38,1143.41 1447.55,1144.97 1440.21,1144.97C1427.71,1144.97 1417.51,1140.82 1409.62,1132.51C1401.73,1124.2 1397.79,1113.43 1397.79,1100.2C1397.79,1087.34 1401.26,1076.79 1408.21,1068.56C1415.17,1060.33 1424.06,1056.22 1434.89,1056.22C1445.15,1056.22 1453.09,1059.87 1458.68,1067.16C1464.28,1074.45 1467.08,1084.81 1467.08,1098.25L1467,1103.02L1413.49,1103.02C1415.73,1123.17 1425.6,1133.25 1443.1,1133.25C1449.5,1133.25 1457.37,1131.53 1466.69,1128.09L1466.69,1140.28ZM1414.19,1091.45L1451.61,1091.45C1451.61,1075.67 1445.73,1067.78 1433.96,1067.78C1422.13,1067.78 1415.55,1075.67 1414.19,1091.45Z" style="fill:rgb(77,77,77);fill-rule:nonzero;"/>
                    <path d="M1507.91,1144.97C1500.1,1144.97 1494.01,1142.73 1489.63,1138.25C1485.26,1133.77 1483.07,1127.55 1483.07,1119.58L1483.07,1069.74L1472.44,1069.74L1472.44,1058.17L1483.07,1058.17L1483.07,1042.78L1498.46,1041.3L1498.46,1058.17L1520.65,1058.17L1520.65,1069.74L1498.46,1069.74L1498.46,1116.77C1498.46,1127.86 1503.25,1133.41 1512.84,1133.41C1514.87,1133.41 1517.34,1133.07 1520.26,1132.39L1520.26,1143.02C1515.52,1144.32 1511.4,1144.97 1507.91,1144.97Z" style="fill:rgb(77,77,77);fill-rule:nonzero;"/>
                    <path d="M1548.81,1173.88L1562.56,1143.02L1529.75,1058.17L1546.39,1058.17L1570.69,1122.08L1596.62,1058.17L1611.15,1058.17L1564.83,1173.88L1548.81,1173.88Z" style="fill:rgb(77,77,77);fill-rule:nonzero;"/>
                </g>
            </g>
            <g transform="matrix(1,0,0,1,85.0548,-875.168)">
                <g transform="matrix(1,0,0,1,-2097.07,0)">
                    <path d="M2633.35,638.925L2639.9,632.228C2616.32,609.007 2598.24,592.622 2586.07,576.197C2572.6,557.976 2565.55,539.598 2565.55,513.702C2565.55,495.227 2569.98,479.193 2575.84,466.049C2586.03,443.258 2600.62,429.294 2603.63,426.56L2663.83,364.977L2707.54,364.977L2684.19,388.867C2706.59,410.838 2724.44,427.263 2736.76,443.707C2750.94,462.612 2758.56,481.673 2758.56,507.452C2758.56,525.927 2754.13,541.981 2748.27,555.105C2738.05,577.916 2723.48,591.88 2720.48,594.594L2637.05,679.808L2609.13,663.671L2628.61,643.763C2636.88,645.273 2645.38,646.248 2654.06,646.689L2662.46,646.887C2662.46,646.887 2650.31,645.053 2633.35,638.925ZM2662.36,411.19L2625.6,448.785C2625.31,449.097 2624.98,449.39 2624.66,449.683C2624.66,449.683 2612.63,460.307 2604.37,478.802C2600.08,488.43 2596.79,500.168 2596.79,513.702C2596.79,531.904 2601.72,544.813 2611.21,557.605C2622.61,573.033 2639.68,588.247 2661.75,609.906L2698.51,572.369C2698.8,572.057 2699.11,571.764 2699.44,571.491C2699.44,571.491 2711.45,560.847 2719.73,542.333C2724.03,532.724 2727.31,520.986 2727.31,507.452C2727.31,489.231 2721.76,475.814 2711.77,462.456C2700.18,446.988 2683.35,431.696 2662.36,411.19Z" style="fill:rgb(54,130,245);"/>
                </g>
                <g transform="matrix(1.95298,0,0,1.95298,-1356.22,-1634.82)">
                    <path d="M908.934,1008.53L935.648,1008.53L908.934,1031.36L908.934,1008.53Z" style="fill:rgb(54,130,245);"/>
                </g>
                <g transform="matrix(12.5163,0,0,12.5164,-4303.73,-3468.6)">
                    <path d="M390.294,319.583C390.294,318.599 391.093,317.799 392.077,317.799C392.166,317.799 392.252,317.812 392.338,317.825C392.2,316.143 390.806,314.814 389.088,314.814C387.28,314.814 385.812,316.282 385.812,318.091C385.812,319.899 387.28,321.367 389.088,321.367C389.73,321.367 390.324,321.175 390.83,320.856C390.5,320.532 390.294,320.082 390.294,319.583Z" style="fill:rgb(102,178,255);fill-rule:nonzero;"/>
                </g>
                <g transform="matrix(1,0,0,1,-2097.07,0)">
                    <path d="M2662.82,334.85L2830.79,334.85L2830.79,500.566C2830.79,656.746 2662.17,745.199 2662.17,745.199L2652.37,734.66L2559.85,635.18L2662.17,694.332C2688.32,682.116 2800.34,622.701 2800.34,500.566L2800.34,364.977L2662.17,364.977L2662.17,364.975C2588.83,365.129 2529.33,424.726 2529.33,498.108C2529.33,500.794 2529.41,503.455 2529.6,506.092C2533.26,590.12 2595.36,625.256 2633.35,638.925L2633.54,638.997C2650.4,645.067 2662.46,646.887 2662.46,646.887L2654.06,646.689C2645.38,646.248 2636.88,645.273 2628.61,643.763L2628.39,643.724C2554.6,630.424 2499.2,576.517 2499.2,498.108C2499.2,407.996 2572.35,334.841 2662.46,334.841L2662.82,334.85Z" style="fill:rgb(1,5,5);fill-opacity:0.71;"/>
                </g>
            </g>
        </g>
    </g>
</svg>
